<?xml version="1.0" standalone="no"?>
<!DOCTYPE svg PUBLIC "-//W3C//DTD SVG 20010904//EN"
 "http://www.w3.org/TR/2001/REC-SVG-20010904/DTD/svg10.dtd">
<svg version="1.0" xmlns="http://www.w3.org/2000/svg"
 width="376.000000pt" height="318.000000pt" viewBox="0 0 376.000000 318.000000"
 preserveAspectRatio="xMidYMid meet">

<g transform="translate(0.000000,318.000000) scale(0.100000,-0.100000)"
fill="#000000" stroke="none">
<path d="M1863 2293 c9 -2 23 -2 30 0 6 3 -1 5 -18 5 -16 0 -22 -2 -12 -5z"/>
<path d="M1818 2283 c7 -3 16 -2 19 1 4 3 -2 6 -13 5 -11 0 -14 -3 -6 -6z"/>
<path d="M1735 2259 c-22 -12 -44 -26 -50 -31 -5 -6 6 -2 25 8 19 11 49 24 65
31 17 6 23 12 15 12 -8 1 -33 -8 -55 -20z"/>
<path d="M1821 2254 c-102 -27 -211 -99 -243 -159 -6 -11 12 2 41 28 94 88
227 132 376 125 79 -4 86 -3 60 8 -40 17 -167 16 -234 -2z"/>
<path d="M1850 2184 c-78 -20 -192 -80 -235 -123 -47 -46 -75 -101 -74 -143
l1 -33 8 33 c34 146 343 284 542 243 31 -7 73 -23 93 -37 37 -25 38 -17 2 24
-45 49 -217 68 -337 36z"/>
<path d="M1925 2085 c-190 -34 -356 -159 -355 -267 0 -43 17 -53 24 -14 4 23
25 55 57 91 144 157 475 207 579 88 33 -37 38 -30 16 22 -17 41 -67 69 -151
84 -70 13 -80 13 -170 -4z"/>
<path d="M1912 1950 c-202 -53 -317 -188 -241 -284 24 -30 37 -29 18 1 -7 13
-9 34 -5 57 20 106 210 204 375 194 89 -5 139 -27 154 -69 14 -37 27 -37 27 0
0 44 -43 88 -103 106 -67 20 -136 18 -225 -5z"/>
<path d="M1910 1817 c-107 -35 -188 -132 -152 -183 9 -13 54 -44 65 -44 4 0
-3 14 -15 31 l-23 30 20 37 c15 27 38 46 85 72 57 30 74 34 137 34 62 0 75 -3
97 -24 28 -25 34 -64 14 -90 -7 -9 -1 -3 15 14 44 49 32 106 -28 132 -49 20
-140 17 -215 -9z"/>
<path d="M1970 1718 c-46 -13 -86 -43 -93 -68 -19 -72 168 -59 201 14 9 20 8
28 -4 41 -9 8 -21 15 -29 15 -7 0 -19 2 -27 4 -7 2 -29 0 -48 -6z m68 -51 c5
-26 -26 -46 -70 -47 -49 0 -58 18 -23 47 33 29 88 29 93 0z"/>
<path d="M972 1363 c-18 -9 -41 -27 -52 -40 -19 -24 -19 -25 0 -76 11 -29 20
-52 20 -53 0 -1 21 -14 46 -30 81 -51 114 -143 58 -164 -42 -16 -46 -13 -39
34 l7 44 -47 4 c-26 2 -49 0 -52 -5 -13 -22 10 -102 38 -129 26 -27 33 -29 72
-23 23 4 59 14 80 23 l38 15 -6 56 c-12 104 -35 141 -122 201 -28 19 -34 68
-10 84 23 15 52 -4 52 -35 0 -22 5 -24 49 -27 l49 -3 -7 42 c-8 51 -20 68 -63
86 -42 17 -71 16 -111 -4z"/>
<path d="M1248 1364 c-43 -23 -62 -69 -60 -149 4 -217 23 -278 90 -290 21 -3
49 -2 63 3 38 15 59 103 59 248 0 128 -10 158 -60 188 -34 20 -57 20 -92 0z
m73 -119 c11 -61 14 -197 5 -222 -5 -15 -15 -23 -30 -23 -30 0 -36 28 -36 164
0 104 8 130 40 124 9 -2 17 -19 21 -43z"/>
<path d="M1510 1371 c-30 -5 -37 -12 -53 -55 -34 -94 -19 -249 33 -334 11 -18
36 -40 55 -49 33 -16 37 -16 70 0 37 18 59 52 70 110 l7 37 -51 0 -51 0 0 -41
c0 -97 -79 6 -87 114 -7 78 11 147 36 147 10 0 21 -9 24 -20 4 -15 13 -20 39
-20 53 0 58 8 46 68 l-11 52 -46 -1 c-25 -1 -62 -4 -81 -8z"/>
<path d="M1725 1349 c3 -19 7 -122 9 -229 l3 -195 39 3 c21 2 42 7 46 10 3 4
0 36 -8 72 -15 72 -17 227 -4 305 4 28 7 51 6 52 0 0 -23 4 -49 8 l-48 7 6
-33z"/>
<path d="M1955 1331 c-16 -141 -40 -275 -61 -349 -14 -47 -23 -86 -21 -88 1
-2 21 -6 43 -10 37 -5 42 -4 47 17 4 13 7 41 7 62 0 37 0 37 40 37 41 0 43 -2
54 -53 6 -23 10 -27 29 -21 38 11 39 19 13 96 -14 42 -29 109 -32 149 -4 41
-12 77 -18 81 -8 5 -7 8 2 8 8 0 12 17 12 50 0 33 -4 50 -12 50 -7 1 -32 5
-55 9 l-42 8 -6 -46z m88 -293 c-2 -5 -18 -8 -35 -8 l-31 0 7 53 c4 28 12 70
18 92 l12 40 16 -85 c9 -47 15 -88 13 -92z"/>
<path d="M2183 1308 c8 -65 5 -329 -5 -367 -2 -12 6 -14 42 -10 25 2 73 4 108
4 60 -1 62 0 63 25 0 14 2 33 4 43 2 13 -1 17 -12 13 -8 -3 -38 -9 -67 -12
l-53 -6 -7 79 c-4 44 -5 102 -2 129 3 27 8 77 11 112 l6 62 -49 0 -48 0 9 -72z"/>
<path d="M2438 1303 c9 -99 9 -207 0 -304 l-7 -76 62 9 c34 5 83 6 110 3 l47
-6 0 47 c0 40 -2 45 -17 39 -10 -3 -39 -9 -65 -12 l-47 -6 -7 38 c-8 44 1 301
11 328 6 15 1 17 -44 17 l-51 0 8 -77z"/>
<path d="M2643 1357 c-17 -7 -34 -15 -37 -18 -4 -3 21 -55 55 -114 67 -118 67
-116 43 -264 l-7 -41 47 0 46 0 -1 113 c0 131 19 197 76 264 l35 41 -25 16
c-13 9 -28 16 -33 16 -12 0 -53 -100 -46 -111 3 -5 0 -9 -6 -9 -6 0 -16 -11
-22 -25 -6 -14 -14 -25 -18 -25 -4 0 -20 38 -36 85 -16 47 -31 85 -34 84 -3 0
-19 -6 -37 -12z"/>
</g>
</svg>
